<?xml version="1.0" encoding="UTF-8"?>
<!-- Created with Inkscape (http://www.inkscape.org/) -->
<svg width="10.583mm" height="10.583mm" version="1.1" viewBox="0 0 10.583333 10.583333" xmlns="http://www.w3.org/2000/svg" xmlns:cc="http://creativecommons.org/ns#" xmlns:dc="http://purl.org/dc/elements/1.1/" xmlns:rdf="http://www.w3.org/1999/02/22-rdf-syntax-ns#">
 <metadata>
  <rdf:RDF>
   <cc:Work rdf:about="">
    <dc:format>image/svg+xml</dc:format>
    <dc:type rdf:resource="http://purl.org/dc/dcmitype/StillImage"/>
    <dc:title/>
   </cc:Work>
  </rdf:RDF>
 </metadata>
 <g transform="translate(-97.518 -182.85)">
  <g transform="matrix(.26458 0 0 .26458 97.518 182.85)">
   <path d="m0 0.5v-0.5h40v40h-40v-39.5m12.5 29.5q0.5 0 0.5-0.5v-1q0-0.5 0-1t0-1v-1q0-0.5-0.5-0.5h-1q-0.5 0-1 0t-1 0h-1q-0.5 0-0.5 0.5v1q0 0.5 0 1t0 1v1q0 0.5 0.5 0.5h1q0.5 0 1 0t1 0h1m0-8q0.5 0 0.5-0.5v-1q0-0.5 0-1t0-1v-1q0-0.5-0.5-0.5h-1q-0.5 0-1 0t-1 0h-1q-0.5 0-0.5 0.5v1q0 0.5 0 1t0 1v1q0 0.5 0.5 0.5h1q0.5 0 1 0t1 0h1m0-8q0.5 0 0.5-0.5v-1q0-0.5 0-1t0-1v-1q0-0.5-0.5-0.5h-1q-0.5 0-1 0t-1 0h-1q-0.5 0-0.5 0.5v1q0 0.5 0 1t0 1v1q0 0.5 0.5 0.5h1q0.5 0 1 0t1 0h1m19 15q0.5 0 0.5-0.5t0-1-0.5-0.5h-1q-0.5 0-1 0t-1 0-1 0-1 0-1 0-1 0-1 0-1 0-1 0-1 0-1 0-1 0-1 0h-2q-0.5 0-0.5 0.5v1q0 0.5 0.5 0.5h2q0.5 0 1 0t1 0 1 0 1 0 1 0 1 0 1 0 1 0 1 0 1 0 1 0 1 0 1 0h1m0-8q0.5 0 0.5-0.5t0-1-0.5-0.5h-1q-0.5 0-1 0t-1 0-1 0-1 0-1 0-1 0-1 0-1 0-1 0-1 0-1 0-1 0-1 0h-2q-0.5 0-0.5 0.5v1q0 0.5 0.5 0.5h2q0.5 0 1 0t1 0 1 0 1 0 1 0 1 0 1 0 1 0 1 0 1 0 1 0 1 0 1 0h1m0-8q0.5 0 0.5-0.5t0-1-0.5-0.5h-1q-0.5 0-1 0t-1 0-1 0-1 0-1 0-1 0-1 0-1 0-1 0-1 0-1 0-1 0-1 0h-2q-0.5 0-0.5 0.5v1q0 0.5 0.5 0.5h2q0.5 0 1 0t1 0 1 0 1 0 1 0 1 0 1 0 1 0 1 0 1 0 1 0 1 0 1 0h1" fill-opacity="0"/>
   <g>
    <path d="m8 9.5q0-0.5 0.5-0.5h0.5v0.5q0 0.5-0.5 0.5h-0.5v-0.5" fill-opacity=".95686"/>
    <path d="m9 9.5v-0.5h0.5q0.5 0 1 0t1 0h0.5v0.5q0 0.5 0.5 0.5h0.5v0.5q0 0.5 0 1t0 1v0.5h-0.5q-0.5 0-0.5 0.5v0.5h-0.5q-0.5 0-1 0t-1 0h-0.5v-0.5q0-0.5-0.5-0.5h-0.5v-0.5q0-0.5 0-1t0-1v-0.5h0.5q0.5 0 0.5-0.5"/>
    <path d="m12 9.5v-0.5h0.5q0.5 0 0.5 0.5v0.5h-0.5q-0.5 0-0.5-0.5" fill-opacity=".95686"/>
    <path d="m15 11.5q0-0.5 0.5-0.5h0.5v1h-1v-0.5" fill-opacity=".33333"/>
    <path d="m16 11.5v-0.5h1v0.5q0 0.5 0 1v0.5h-1v-1.5" fill-opacity=".99216"/>
    <path d="m17 11.5v-0.5h0.5q0.5 0 1 0t1 0 1 0 1 0 1 0 1 0 1 0 1 0 1 0 1 0 1 0 1 0 1 0h0.5v0.5q0 0.5 0 1v0.5h-0.5q-0.5 0-1 0t-1 0-1 0-1 0-1 0-1 0-1 0-1 0-1 0-1 0-1 0-1 0-1 0h-0.5v-0.5q0-0.5 0-1"/>
    <path d="m31 11.5v-0.5h0.5q0.5 0 0.5 0.5t0 1-0.5 0.5h-0.5v-0.5q0-0.5 0-1" fill-opacity=".82353"/>
    <path d="m15 12.5v-0.5h1v1h-0.5q-0.5 0-0.5-0.5" fill-opacity=".33725"/>
    <g fill-opacity=".95686">
     <path d="m8 13.5v-0.5h0.5q0.5 0 0.5 0.5v0.5h-0.5q-0.5 0-0.5-0.5"/>
     <path d="m12 13.5q0-0.5 0.5-0.5h0.5v0.5q0 0.5-0.5 0.5h-0.5v-0.5"/>
     <path d="m8 17.5q0-0.5 0.5-0.5h0.5v0.5q0 0.5-0.5 0.5h-0.5v-0.5"/>
    </g>
    <path d="m9 17.5v-0.5h0.5q0.5 0 1 0t1 0h0.5v0.5q0 0.5 0.5 0.5h0.5v0.5q0 0.5 0 1t0 1v0.5h-0.5q-0.5 0-0.5 0.5v0.5h-0.5q-0.5 0-1 0t-1 0h-0.5v-0.5q0-0.5-0.5-0.5h-0.5v-0.5q0-0.5 0-1t0-1v-0.5h0.5q0.5 0 0.5-0.5"/>
    <path d="m12 17.5v-0.5h0.5q0.5 0 0.5 0.5v0.5h-0.5q-0.5 0-0.5-0.5" fill-opacity=".95686"/>
    <path d="m15 19.5q0-0.5 0.5-0.5h0.5v1h-1v-0.5" fill-opacity=".33333"/>
    <path d="m16 19.5v-0.5h1v0.5q0 0.5 0 1v0.5h-1v-1.5" fill-opacity=".99216"/>
    <path d="m17 19.5v-0.5h0.5q0.5 0 1 0t1 0 1 0 1 0 1 0 1 0 1 0 1 0 1 0 1 0 1 0 1 0 1 0h0.5v0.5q0 0.5 0 1v0.5h-0.5q-0.5 0-1 0t-1 0-1 0-1 0-1 0-1 0-1 0-1 0-1 0-1 0-1 0-1 0-1 0h-0.5v-0.5q0-0.5 0-1"/>
    <path d="m31 19.5v-0.5h0.5q0.5 0 0.5 0.5t0 1-0.5 0.5h-0.5v-0.5q0-0.5 0-1" fill-opacity=".82353"/>
    <path d="m15 20.5v-0.5h1v1h-0.5q-0.5 0-0.5-0.5" fill-opacity=".33725"/>
    <g fill-opacity=".95686">
     <path d="m8 21.5v-0.5h0.5q0.5 0 0.5 0.5v0.5h-0.5q-0.5 0-0.5-0.5"/>
     <path d="m12 21.5q0-0.5 0.5-0.5h0.5v0.5q0 0.5-0.5 0.5h-0.5v-0.5"/>
     <path d="m8 25.5q0-0.5 0.5-0.5h0.5v0.5q0 0.5-0.5 0.5h-0.5v-0.5"/>
    </g>
    <path d="m9 25.5v-0.5h0.5q0.5 0 1 0t1 0h0.5v0.5q0 0.5 0.5 0.5h0.5v0.5q0 0.5 0 1t0 1v0.5h-0.5q-0.5 0-0.5 0.5v0.5h-0.5q-0.5 0-1 0t-1 0h-0.5v-0.5q0-0.5-0.5-0.5h-0.5v-0.5q0-0.5 0-1t0-1v-0.5h0.5q0.5 0 0.5-0.5"/>
    <path d="m12 25.5v-0.5h0.5q0.5 0 0.5 0.5v0.5h-0.5q-0.5 0-0.5-0.5" fill-opacity=".95686"/>
    <path d="m15 27.5q0-0.5 0.5-0.5h0.5v1h-1v-0.5" fill-opacity=".33333"/>
    <path d="m16 27.5v-0.5h1v0.5q0 0.5 0 1v0.5h-1v-1.5" fill-opacity=".99216"/>
    <path d="m17 27.5v-0.5h0.5q0.5 0 1 0t1 0 1 0 1 0 1 0 1 0 1 0 1 0 1 0 1 0 1 0 1 0 1 0h0.5v0.5q0 0.5 0 1v0.5h-0.5q-0.5 0-1 0t-1 0-1 0-1 0-1 0-1 0-1 0-1 0-1 0-1 0-1 0-1 0-1 0h-0.5v-0.5q0-0.5 0-1"/>
    <path d="m31 27.5v-0.5h0.5q0.5 0 0.5 0.5t0 1-0.5 0.5h-0.5v-0.5q0-0.5 0-1" fill-opacity=".82353"/>
    <path d="m15 28.5v-0.5h1v1h-0.5q-0.5 0-0.5-0.5" fill-opacity=".33725"/>
    <path d="m8 29.5v-0.5h0.5q0.5 0 0.5 0.5v0.5h-0.5q-0.5 0-0.5-0.5" fill-opacity=".95686"/>
    <path d="m12 29.5q0-0.5 0.5-0.5h0.5v0.5q0 0.5-0.5 0.5h-0.5v-0.5" fill-opacity=".95686"/>
   </g>
  </g>
 </g>
</svg>
