<?xml version="1.0" encoding="UTF-8"?>
<!-- Created with Inkscape (http://www.inkscape.org/) -->
<svg width="40" height="40" version="1.1" viewBox="0 0 40 40" xmlns="http://www.w3.org/2000/svg" xmlns:cc="http://creativecommons.org/ns#" xmlns:dc="http://purl.org/dc/elements/1.1/" xmlns:rdf="http://www.w3.org/1999/02/22-rdf-syntax-ns#">
 <metadata>
  <rdf:RDF>
   <cc:Work rdf:about="">
    <dc:format>image/svg+xml</dc:format>
    <dc:type rdf:resource="http://purl.org/dc/dcmitype/StillImage"/>
    <dc:title/>
   </cc:Work>
  </rdf:RDF>
 </metadata>
 <path d="m0 0.5v-0.5h40v40h-40v-39.5m16.5 29.5q0.5 0 0.5-0.5v-0.5h1.5q0.5 0 0.5-0.5v-0.5h0.5q0.5 0 0.5-0.5v-0.5h0.5q0.5 0 0.5-0.5v-0.5h0.5q0.5 0 0.5-0.5v-1q0-0.5 0-1t0-1 0-1 0-1 0-1 0-1 0-1 0-1 0-1 0-1 0-1 0-1 0-1 0-1 0-1 0-1v-1q0-0.5-0.5-0.5h-1q-0.5 0-0.5 0.5v0.5h-0.5q-0.5 0-0.5 0.5v0.5h-0.5q-0.5 0-0.5 0.5v0.5h-1.5q-0.5 0-0.5 0.5v0.5h-1v-0.5q0-0.5-0.5-0.5h-1.5v-0.5q0-0.5-0.5-0.5h-0.5v-0.5q0-0.5-0.5-0.5h-0.5v-0.5q0-0.5-0.5-0.5h-2q-0.5 0-0.5 0.5v1q0 0.5 0 1t0 1 0 1 0 1 0 1 0 1 0 1 0 1 0 1 0 1 0 1 0 1 0 1 0 1 0 1v2q0 0.5 0.5 0.5h1.5v0.5q0 0.5 0.5 0.5h0.5v0.5q0 0.5 0.5 0.5h0.5v0.5q0 0.5 0.5 0.5h1.5v0.5q0 0.5 0.5 0.5h2m12 2q0.5 0 0.5-0.5v-0.5h0.5q0.5 0 0.5-0.5v-1.5h0.5q0.5 0 0.5-0.5v-0.5h0.5q0.5 0 0.5-0.5v-6q0-0.5-0.5-0.5h-0.5v-0.5q0-0.5-0.5-0.5h-0.5v-2.5q0-0.5 0-1t0-1 0-1 0-1v-2q0-0.5-0.5-0.5h-0.5v-0.5q0-0.5-0.5-0.5h-1.5v-0.5q0-0.5-0.5-0.5h-0.5v-0.5q0-0.5-0.5-0.5h-0.5v-0.5q0-0.5-0.5-0.5h-1q-0.5 0-0.5 0.5v1q0 0.5 0 1t0 1 0 1 0 1 0 1 0 1 0 1 0 1 0 1 0 1v9q0 0.5 0.5 0.5h0.5v0.5q0 0.5 0.5 0.5h0.5v1.5q0 0.5 0.5 0.5h0.5v0.5q0 0.5 0.5 0.5h2" fill-opacity="0"/>
 <g>
  <path d="m8 7.5q0-0.5 0.5-0.5h0.5v1h-1v-0.5" fill-opacity=".93725"/>
  <path d="m9 7.5v-0.5h1v1h-1v-0.5" fill-opacity=".42745"/>
  <path d="m10 7.5v-0.5h0.5q0.5 0 0.5 0.5v0.5h-1v-0.5" fill-opacity=".0039216"/>
  <path d="m20 7.5q0-0.5 0.5-0.5h0.5v1h-1v-0.5" fill-opacity=".0039216"/>
  <path d="m21 7.5v-0.5h0.5q0.5 0 0.5 0.5v0.5h-1v-0.5" fill-opacity=".43137"/>
  <path d="m23 7.5q0-0.5 0.5-0.5h0.5v1h-1v-0.5" fill-opacity=".42745"/>
  <path d="m24 7.5v-0.5h0.5q0.5 0 0.5 0.5v0.5h-1v-0.5" fill-opacity=".0039216"/>
  <path d="m8 8.5v-0.5h2v0.5q0 0.5 0.5 0.5h0.5v0.5q0 0.5 0.5 0.5h0.5v0.5q0 0.5 0.5 0.5h1.5v0.5q0 0.5 0.5 0.5h0.5v0.5q0 0.5 0 1t0 1 0 1 0 1 0 1 0 1 0 1 0 1 0 1 0 1 0 1 0 1 0 1 0 1 0 1 0 1v0.5h-1v-0.5q0-0.5-0.5-0.5h-0.5v-0.5q0-0.5-0.5-0.5h-0.5v-0.5q0-0.5-0.5-0.5h-1.5v-0.5q0-0.5-0.5-0.5h-0.5v-0.5q0-0.5-0.5-0.5h-0.5v-0.5q0-0.5 0-1t0-1 0-1 0-1 0-1 0-1 0-1 0-1 0-1 0-1 0-1 0-1 0-1 0-1 0-1"/>
  <path d="m10 8.5v-0.5h1v1h-0.5q-0.5 0-0.5-0.5" fill-opacity=".68627"/>
  <path d="m11 8.5v-0.5h0.5q0.5 0 0.5 0.5v0.5h-1v-0.5" fill-opacity=".066667"/>
  <path d="m19 8.5q0-0.5 0.5-0.5h0.5v1h-1v-0.5" fill-opacity=".066667"/>
  <path d="m20 8.5v-0.5h1v0.5q0 0.5-0.5 0.5h-0.5v-0.5" fill-opacity=".68627"/>
  <path d="m21 8.5v-0.5h1v0.5q0 0.5 0 1t0 1 0 1 0 1 0 1 0 1 0 1 0 1 0 1 0 1 0 1 0 1 0 1 0 1 0 1 0 1v0.5h-0.5q-0.5 0-0.5 0.5v0.5h-1.5q-0.5 0-0.5 0.5v0.5h-0.5q-0.5 0-0.5 0.5v0.5h-0.5q-0.5 0-0.5 0.5v0.5h-1v-0.5q0-0.5 0-1t0-1 0-1 0-1 0-1 0-1 0-1 0-1 0-1 0-1 0-1 0-1 0-1 0-1 0-1 0-1v-0.5h0.5q0.5 0 0.5-0.5v-0.5h1.5q0.5 0 0.5-0.5v-0.5h0.5q0.5 0 0.5-0.5v-0.5h0.5q0.5 0 0.5-0.5"/>
  <path d="m23 8.5v-0.5h1v0.5q0 0.5 0.5 0.5h0.5v0.5q0 0.5 0.5 0.5h0.5v0.5q0 0.5 0.5 0.5h1.5v0.5q0 0.5 0.5 0.5h0.5v0.5q0 0.5 0.5 0.5h0.5v0.5q0 0.5 0 1t0 1 0 1 0 1v0.5h-4.5q-0.5 0-0.5 0.5v0.5h-2v-0.5q0-0.5 0-1t0-1 0-1 0-1 0-1 0-1 0-1 0-1 0-1 0-1"/>
  <path d="m24 8.5v-0.5h1v1h-0.5q-0.5 0-0.5-0.5" fill-opacity=".68627"/>
  <path d="m25 8.5v-0.5h0.5q0.5 0 0.5 0.5v0.5h-1v-0.5" fill-opacity=".066667"/>
  <path d="m11 9.5v-0.5h1v1h-0.5q-0.5 0-0.5-0.5" fill-opacity=".87451"/>
  <path d="m12 9.5v-0.5h0.5q0.5 0 0.5 0.5v0.5h-1v-0.5" fill-opacity=".22353"/>
  <path d="m18 9.5q0-0.5 0.5-0.5h0.5v1h-1v-0.5" fill-opacity=".22353"/>
  <path d="m19 9.5v-0.5h1v0.5q0 0.5-0.5 0.5h-0.5v-0.5" fill-opacity=".87451"/>
  <path d="m25 9.5v-0.5h1v1h-0.5q-0.5 0-0.5-0.5" fill-opacity=".87451"/>
  <path d="m26 9.5v-0.5h0.5q0.5 0 0.5 0.5v0.5h-1v-0.5" fill-opacity=".21961"/>
  <path d="m12 10.5v-0.5h1v1h-0.5q-0.5 0-0.5-0.5" fill-opacity=".98431"/>
  <path d="m13 10.5v-0.5h1v1h-1v-0.5" fill-opacity=".4549"/>
  <path d="m14 10.5v-0.5h0.5q0.5 0 0.5 0.5v0.5h-1v-0.5" fill-opacity=".0039216"/>
  <path d="m16 10.5q0-0.5 0.5-0.5h0.5v1h-1v-0.5" fill-opacity=".0039216"/>
  <path d="m17 10.5v-0.5h1v1h-1v-0.5" fill-opacity=".4549"/>
  <path d="m18 10.5v-0.5h1v0.5q0 0.5-0.5 0.5h-0.5v-0.5" fill-opacity=".98431"/>
  <path d="m26 10.5v-0.5h1v1h-0.5q-0.5 0-0.5-0.5" fill-opacity=".98431"/>
  <path d="m27 10.5v-0.5h1v1h-1v-0.5" fill-opacity=".4549"/>
  <path d="m28 10.5v-0.5h0.5q0.5 0 0.5 0.5v0.5h-1v-0.5" fill-opacity=".0039216"/>
  <path d="m14 11.5v-0.5h1v1h-0.5q-0.5 0-0.5-0.5" fill-opacity=".70588"/>
  <path d="m15 11.5v-0.5h1v1h-1v-0.5" fill-opacity=".019608"/>
  <path d="m16 11.5v-0.5h1v0.5q0 0.5-0.5 0.5h-0.5v-0.5" fill-opacity=".70588"/>
  <path d="m28 11.5v-0.5h1v1h-0.5q-0.5 0-0.5-0.5" fill-opacity=".70588"/>
  <path d="m29 11.5v-0.5h0.5q0.5 0 0.5 0.5v0.5h-1v-0.5" fill-opacity=".078431"/>
  <path d="m15 12.5v-0.5h1v0.5q0 0.5 0 1t0 1 0 1 0 1 0 1 0 1 0 1 0 1 0 1 0 1 0 1 0 1 0 1 0 1 0 1 0 1v0.5h-1v-0.5q0-0.5 0-1t0-1 0-1 0-1 0-1 0-1 0-1 0-1 0-1 0-1 0-1 0-1 0-1 0-1 0-1 0-1" fill-opacity=".062745"/>
  <path d="m29 12.5v-0.5h1v1h-0.5q-0.5 0-0.5-0.5" fill-opacity=".88627"/>
  <path d="m25 18.5q0-0.5 0.5-0.5h0.5v1h-1v-0.5" fill-opacity=".91765"/>
  <path d="m26 18.5v-0.5h1v1h-1v-0.5" fill-opacity=".63137"/>
  <path d="m27 18.5v-0.5h1v1h-1v-0.5" fill-opacity=".52549"/>
  <path d="m28 18.5v-0.5h1v1h-1v-0.5" fill-opacity=".62745"/>
  <path d="m29 18.5v-0.5h1v1h-1v-0.5" fill-opacity=".91765"/>
  <path d="m23 19.5v-0.5h1v1h-1v-0.5" fill-opacity=".99216"/>
  <path d="m24 19.5v-0.5h1v1h-1v-0.5" fill-opacity=".46667"/>
  <path d="m25 19.5v-0.5h1v1h-1v-0.5" fill-opacity=".10588"/>
  <path d="m26 19.5v-0.5h1v1h-1v-0.5" fill-opacity=".39608"/>
  <path d="m27 19.5v-0.5h1v1h-1v-0.5" fill-opacity=".50196"/>
  <path d="m28 19.5v-0.5h1v1h-1v-0.5" fill-opacity=".39608"/>
  <path d="m29 19.5v-0.5h1v1h-1v-0.5" fill-opacity=".10588"/>
  <path d="m23 20.5v-0.5h1v1h-1v-0.5" fill-opacity=".38431"/>
  <path d="m24 20.5v-0.5h1v1h-1v-0.5" fill-opacity=".33725"/>
  <path d="m25 20.5v-0.5h1v0.5q0 0.5-0.5 0.5h-0.5v-0.5" fill-opacity=".94902"/>
  <path d="m26 20.5v-0.5h3v0.5q0 0.5 0.5 0.5h0.5v0.5q0 0.5 0.5 0.5h0.5v5h-0.5q-0.5 0-0.5 0.5v1.5h-0.5q-0.5 0-0.5 0.5v0.5h-0.5q-0.5 0-0.5 0.5v0.5h-1v-0.5q0-0.5-0.5-0.5h-0.5v-0.5q0-0.5-0.5-0.5h-0.5v-1.5q0-0.5-0.5-0.5h-0.5v-5h0.5q0.5 0 0.5-0.5v-0.5h0.5q0.5 0 0.5-0.5m2.5 6.5q0.5 0 0.5-0.5v-0.5h0.5q0.5 0 0.5-0.5v-2q0-0.5-0.5-0.5h-0.5v-0.5q0-0.5-0.5-0.5h-2q-0.5 0-0.5 0.5v0.5h-0.5q-0.5 0-0.5 0.5v2q0 0.5 0.5 0.5h0.5v0.5q0 0.5 0.5 0.5h2"/>
  <path d="m29 20.5v-0.5h1v1h-0.5q-0.5 0-0.5-0.5" fill-opacity=".94902"/>
  <path d="m30 20.5v-0.5h0.5q0.5 0 0.5 0.5v0.5h-1v-0.5" fill-opacity=".33725"/>
  <path d="m23 21.5v-0.5h1v1h-1v-0.5" fill-opacity=".22353"/>
  <path d="m24 21.5v-0.5h1v0.5q0 0.5-0.5 0.5h-0.5v-0.5" fill-opacity=".98824"/>
  <path d="m30 21.5v-0.5h1v1h-0.5q-0.5 0-0.5-0.5" fill-opacity=".98824"/>
  <path d="m31 21.5v-0.5h0.5q0.5 0 0.5 0.5v0.5h-1v-0.5" fill-opacity=".22353"/>
  <path d="m23 22.5v-0.5h1v1h-1v-0.5" fill-opacity=".71373"/>
  <path d="m26 22.5q0-0.5 0.5-0.5h0.5v1h-1v-0.5" fill-opacity=".48627"/>
  <path d="m27 22.5v-0.5h1v1h-1v-0.5" fill-opacity=".19608"/>
  <path d="m28 22.5v-0.5h0.5q0.5 0 0.5 0.5v0.5h-1v-0.5" fill-opacity=".48627"/>
  <path d="m31 22.5v-0.5h1v1h-1v-0.5" fill-opacity=".71373"/>
  <path d="m23 23.5v-0.5h1v1h-1v-0.5" fill-opacity=".96471"/>
  <path d="m25 23.5q0-0.5 0.5-0.5h0.5v1h-1v-0.5" fill-opacity=".7098"/>
 </g>
 <path d="m26 23.5v-0.5h3v2h-0.5q-0.5 0-0.5 0.5v0.5h-1v-0.5q0-0.5-0.5-0.5h-0.5v-1.5" fill-opacity="0"/>
 <g>
  <path d="m29 23.5v-0.5h0.5q0.5 0 0.5 0.5v0.5h-1v-0.5" fill-opacity=".7098"/>
  <path d="m31 23.5v-0.5h1v1h-1v-0.5" fill-opacity=".96471"/>
  <path d="m8 24.5v-0.5h0.5q0.5 0 0.5 0.5v0.5h-1v-0.5" fill-opacity=".83529"/>
  <path d="m23 24.5v-0.5h1v1h-1v-0.5" fill-opacity=".98039"/>
  <path d="m25 24.5v-0.5h1v1h-1v-0.5" fill-opacity=".60784"/>
  <path d="m29 24.5v-0.5h1v1h-1v-0.5" fill-opacity=".60784"/>
  <path d="m31 24.5v-0.5h1v1h-1v-0.5" fill-opacity=".98039"/>
  <path d="m8 25.5v-0.5h1v1h-0.5q-0.5 0-0.5-0.5" fill-opacity=".043137"/>
  <path d="m9 25.5v-0.5h0.5q0.5 0 0.5 0.5v0.5h-1v-0.5" fill-opacity=".62745"/>
  <path d="m21 25.5q0-0.5 0.5-0.5h0.5v0.5q0 0.5-0.5 0.5h-0.5v-0.5" fill-opacity=".62745"/>
  <path d="m23 25.5v-0.5h1v1h-1v-0.5" fill-opacity=".76471"/>
  <path d="m25 25.5v-0.5h1v1h-0.5q-0.5 0-0.5-0.5" fill-opacity=".94118"/>
  <path d="m26 25.5v-0.5h0.5q0.5 0 0.5 0.5v0.5h-1v-0.5" fill-opacity=".14118"/>
  <path d="m28 25.5q0-0.5 0.5-0.5h0.5v1h-1v-0.5" fill-opacity=".14118"/>
  <path d="m29 25.5v-0.5h1v0.5q0 0.5-0.5 0.5h-0.5v-0.5" fill-opacity=".94118"/>
  <path d="m31 25.5v-0.5h1v1h-1v-0.5" fill-opacity=".76471"/>
  <path d="m10 26.5v-0.5h1v1h-0.5q-0.5 0-0.5-0.5" fill-opacity=".37647"/>
  <path d="m11 26.5v-0.5h0.5q0.5 0 0.5 0.5v0.5h-1v-0.5" fill-opacity=".95686"/>
  <path d="m19 26.5q0-0.5 0.5-0.5h0.5v1h-1v-0.5" fill-opacity=".95686"/>
  <path d="m20 26.5v-0.5h1v0.5q0 0.5-0.5 0.5h-0.5v-0.5" fill-opacity=".37255"/>
  <path d="m23 26.5v-0.5h1v1h-1v-0.5" fill-opacity=".36471"/>
  <path d="m26 26.5v-0.5h1v1h-0.5q-0.5 0-0.5-0.5" fill-opacity=".97255"/>
  <path d="m27 26.5v-0.5h1v1h-1v-0.5" fill-opacity=".82353"/>
  <path d="m28 26.5v-0.5h1v0.5q0 0.5-0.5 0.5h-0.5v-0.5" fill-opacity=".97255"/>
  <path d="m31 26.5v-0.5h1v1h-1v-0.5" fill-opacity=".36863"/>
  <path d="m11 27.5v-0.5h1v1h-0.5q-0.5 0-0.5-0.5" fill-opacity=".15686"/>
  <path d="m12 27.5v-0.5h0.5q0.5 0 0.5 0.5v0.5h-1v-0.5" fill-opacity=".82745"/>
  <path d="m18 27.5q0-0.5 0.5-0.5h0.5v1h-1v-0.5" fill-opacity=".82745"/>
  <path d="m19 27.5v-0.5h1v0.5q0 0.5-0.5 0.5h-0.5v-0.5" fill-opacity=".15686"/>
  <path d="m23 27.5v-0.5h1v1h-0.5q-0.5 0-0.5-0.5" fill-opacity=".015686"/>
  <path d="m24 27.5v-0.5h0.5q0.5 0 0.5 0.5v0.5h-1v-0.5" fill-opacity=".84314"/>
  <path d="m30 27.5q0-0.5 0.5-0.5h0.5v1h-1v-0.5" fill-opacity=".84314"/>
  <path d="m31 27.5v-0.5h1v0.5q0 0.5-0.5 0.5h-0.5v-0.5" fill-opacity=".015686"/>
  <path d="m12 28.5v-0.5h1v1h-0.5q-0.5 0-0.5-0.5" fill-opacity=".035294"/>
  <path d="m13 28.5v-0.5h0.5q0.5 0 0.5 0.5v0.5h-1v-0.5" fill-opacity=".60392"/>
  <path d="m17 28.5q0-0.5 0.5-0.5h0.5v1h-1v-0.5" fill-opacity=".60392"/>
  <path d="m18 28.5v-0.5h1v0.5q0 0.5-0.5 0.5h-0.5v-0.5" fill-opacity=".035294"/>
  <path d="m24 28.5v-0.5h1v1h-0.5q-0.5 0-0.5-0.5" fill-opacity=".27059"/>
  <path d="m30 28.5v-0.5h1v0.5q0 0.5-0.5 0.5h-0.5v-0.5" fill-opacity=".27059"/>
  <path d="m14 29.5v-0.5h1v1h-0.5q-0.5 0-0.5-0.5" fill-opacity=".3451"/>
  <path d="m15 29.5v-0.5h1v1h-1v-0.5" fill-opacity=".043137"/>
  <path d="m16 29.5v-0.5h1v0.5q0 0.5-0.5 0.5h-0.5v-0.5" fill-opacity=".3451"/>
  <path d="m25 29.5v-0.5h0.5q0.5 0 0.5 0.5v0.5h-1v-0.5" fill-opacity=".60784"/>
  <path d="m29 29.5q0-0.5 0.5-0.5h0.5v1h-1v-0.5" fill-opacity=".60784"/>
  <path d="m25 30.5v-0.5h1v1h-0.5q-0.5 0-0.5-0.5" fill-opacity=".058824"/>
  <path d="m26 30.5v-0.5h0.5q0.5 0 0.5 0.5v0.5h-1v-0.5" fill-opacity=".86667"/>
  <path d="m28 30.5q0-0.5 0.5-0.5h0.5v1h-1v-0.5" fill-opacity=".86667"/>
  <path d="m29 30.5v-0.5h1v0.5q0 0.5-0.5 0.5h-0.5v-0.5" fill-opacity=".054902"/>
  <path d="m26 31.5v-0.5h1v1h-0.5q-0.5 0-0.5-0.5" fill-opacity=".2"/>
  <path d="m27 31.5v-0.5h1v1h-1v-0.5" fill-opacity=".93333"/>
  <path d="m28 31.5v-0.5h1v0.5q0 0.5-0.5 0.5h-0.5v-0.5" fill-opacity=".2"/>
 </g>
</svg>
